<svg xmlns="http://www.w3.org/2000/svg" xmlns:xlink="http://www.w3.org/1999/xlink" width="40" zoomAndPan="magnify" viewBox="0 0 810 809.999993" height="40" preserveAspectRatio="xMidYMid meet" version="1.0"><defs><g/><clipPath id="2fc91dab93"><path d="M 37.421875 37.421875 L 772.578125 37.421875 L 772.578125 772.578125 L 37.421875 772.578125 Z M 37.421875 37.421875 " clip-rule="nonzero"/></clipPath><clipPath id="b8c8bddbac"><path d="M 75.671875 37.421875 L 734.328125 37.421875 C 744.472656 37.421875 754.203125 41.449219 761.375 48.625 C 768.550781 55.796875 772.578125 65.527344 772.578125 75.671875 L 772.578125 734.328125 C 772.578125 744.472656 768.550781 754.203125 761.375 761.375 C 754.203125 768.550781 744.472656 772.578125 734.328125 772.578125 L 75.671875 772.578125 C 65.527344 772.578125 55.796875 768.550781 48.625 761.375 C 41.449219 754.203125 37.421875 744.472656 37.421875 734.328125 L 37.421875 75.671875 C 37.421875 65.527344 41.449219 55.796875 48.625 48.625 C 55.796875 41.449219 65.527344 37.421875 75.671875 37.421875 Z M 75.671875 37.421875 " clip-rule="nonzero"/></clipPath></defs><g clip-path="url(#2fc91dab93)"><g clip-path="url(#b8c8bddbac)"><path fill="#1a1a1a" d="M 37.421875 37.421875 L 772.578125 37.421875 L 772.578125 772.578125 L 37.421875 772.578125 Z M 37.421875 37.421875 " fill-opacity="1" fill-rule="nonzero"/></g></g><g fill="#ffffff" fill-opacity="1"><g transform="translate(86.378906, 566.249984)"><g><path d="M 10.546875 -7.671875 L 10.546875 0 L 116.90625 0 L 116.90625 -7.671875 L 60.375 -7.671875 L 90.546875 -100.140625 L 186.859375 -100.140625 L 218 -7.671875 L 168.65625 -7.671875 L 168.65625 0 L 309.03125 0 L 309.03125 -7.671875 L 267.359375 -7.671875 L 162.421875 -326.28125 L 156.671875 -326.28125 L 51.75 -7.671875 Z M 138.46875 -244.828125 L 184.46875 -107.796875 L 93.421875 -107.796875 Z M 138.46875 -244.828125 "/></g></g></g><g fill="#ffffff" fill-opacity="1"><g transform="translate(403.078315, 566.249984)"><g><path d="M 164.34375 -327.25 C 144.21875 -327.25 125.210938 -322.773438 107.328125 -313.828125 C 89.441406 -304.878906 73.867188 -292.738281 60.609375 -277.40625 C 47.347656 -262.082031 36.804688 -244.195312 28.984375 -223.75 C 21.160156 -203.3125 17.25 -181.75 17.25 -159.0625 C 17.25 -136.382812 21.238281 -114.820312 29.21875 -94.375 C 37.207031 -73.9375 47.910156 -56.050781 61.328125 -40.71875 C 74.742188 -25.394531 90.234375 -13.257812 107.796875 -4.3125 C 125.367188 4.632812 143.738281 9.109375 162.90625 9.109375 C 178.238281 9.109375 192.691406 7.109375 206.265625 3.109375 C 219.835938 -0.878906 231.8125 -7.023438 242.1875 -15.328125 C 252.570312 -23.640625 260.71875 -34.257812 266.625 -47.1875 C 272.539062 -60.125 275.5 -75.535156 275.5 -93.421875 L 275.5 -109.71875 L 317.1875 -109.71875 L 317.1875 -117.390625 L 174.875 -117.390625 L 174.875 -109.71875 L 226.140625 -109.71875 L 226.140625 -64.6875 C 226.140625 -57.019531 225.34375 -49.351562 223.75 -41.6875 C 222.15625 -34.019531 219.117188 -27.070312 214.640625 -20.84375 C 210.171875 -14.613281 203.863281 -9.5 195.71875 -5.5 C 187.570312 -1.507812 176.953125 0.484375 163.859375 0.484375 C 136.066406 0.484375 114.503906 -10.535156 99.171875 -32.578125 C 83.847656 -54.617188 76.1875 -87.359375 76.1875 -130.796875 L 76.1875 -189.734375 C 76.1875 -212.410156 78.34375 -231.894531 82.65625 -248.1875 C 86.96875 -264.476562 93.035156 -277.8125 100.859375 -288.1875 C 108.679688 -298.570312 117.941406 -306.238281 128.640625 -311.1875 C 139.347656 -316.144531 151.25 -318.625 164.34375 -318.625 C 187.65625 -318.625 207.613281 -311.832031 224.21875 -298.25 C 240.832031 -284.675781 254.253906 -261.597656 264.484375 -229.015625 C 265.441406 -226.140625 266.878906 -224.703125 268.796875 -224.703125 C 270.703125 -224.703125 271.65625 -226.140625 271.65625 -229.015625 L 271.65625 -319.578125 C 271.65625 -323.085938 270.378906 -324.84375 267.828125 -324.84375 C 266.234375 -324.84375 265.035156 -324.523438 264.234375 -323.890625 C 263.441406 -323.253906 262.40625 -322.296875 261.125 -321.015625 L 240.515625 -300.40625 C 231.253906 -308.71875 219.992188 -315.269531 206.734375 -320.0625 C 193.484375 -324.851562 179.351562 -327.25 164.34375 -327.25 Z M 164.34375 -327.25 "/></g></g></g></svg>