<?xml version="1.0" standalone="no"?>
<svg viewBox="0 0 200 200" xmlns="http://www.w3.org/2000/svg">
  <path fill="#008dcf" d="M37.5,-69C46.4,-59.8,49.9,-45.3,51.2,-32.9C52.6,-20.6,51.7,-10.3,57,3.1C62.3,16.4,73.9,32.9,69.9,40.6C65.9,48.4,46.4,47.5,32.1,50.2C17.9,53,9,59.4,-0.3,59.9C-9.5,60.4,-19,54.9,-28,49.1C-37,43.4,-45.5,37.3,-52.6,29C-59.8,20.8,-65.6,10.4,-70.4,-2.8C-75.2,-16,-79.1,-32,-73.5,-42.7C-67.8,-53.5,-52.6,-59.1,-38.7,-65.5C-24.9,-71.9,-12.4,-79.1,0.9,-80.7C14.3,-82.3,28.6,-78.3,37.5,-69Z" transform="translate(100 100)" />
</svg>
